# This file uses centimeters as units for non-parametric coordinates.

mtllib jumpCollider.mtl
g default
v 0.263878 0.272937 0.925135
v 0.302248 0.296495 0.905945
v 0.346333 0.305848 0.886854
v 0.391819 0.300079 0.869730
v 0.434253 0.279754 0.856249
v 0.469481 0.246862 0.847731
v 0.494054 0.204622 0.845009
v 0.156125 0.385895 0.909236
v 0.231919 0.432432 0.871330
v 0.319004 0.450908 0.833618
v 0.408856 0.439513 0.799791
v 0.492678 0.399363 0.773161
v 0.562266 0.334388 0.756334
v 0.610809 0.250948 0.750958
v 0.044526 0.489352 0.870949
v 0.155879 0.557722 0.815260
v 0.283820 0.584865 0.759855
v 0.415825 0.568124 0.710159
v 0.538972 0.509137 0.671035
v 0.641207 0.413680 0.646314
v 0.712523 0.291096 0.638416
v -0.068168 0.580759 0.811216
v 0.076002 0.669278 0.739115
v 0.241648 0.704420 0.667382
v 0.412555 0.682745 0.603040
v 0.571995 0.606376 0.552386
v 0.704359 0.482786 0.520380
v 0.796692 0.324075 0.510154
v -0.179184 0.657866 0.731509
v -0.005748 0.764355 0.644770
v 0.193525 0.806631 0.558476
v 0.399127 0.780556 0.481072
v 0.590933 0.688683 0.420136
v 0.750168 0.540005 0.381632
v 0.861245 0.349075 0.369330
v -0.285788 0.718775 0.633789
v -0.087355 0.840610 0.534550
v 0.140637 0.888979 0.435818
v 0.375871 0.859147 0.347259
v 0.595321 0.754032 0.277540
v 0.777505 0.583926 0.233487
v 0.904590 0.365479 0.219412
v -0.385355 0.761984 0.520464
v -0.166812 0.896167 0.411167
v 0.084286 0.949438 0.302429
v 0.343360 0.916582 0.204895
v 0.585050 0.800815 0.128111
v 0.785697 0.613470 0.079593
v 0.925662 0.372884 0.064091
v -0.475433 0.786431 0.394322
v -0.242161 0.929658 0.277660
v 0.025859 0.986519 0.161593
v 0.302394 0.951448 0.057486
v 0.560373 0.827879 -0.024473
v 0.774543 0.627907 -0.076261
v 0.923941 0.371108 -0.092807
v -0.553804 0.791514 0.258472
v -0.311548 0.940257 0.137315
v -0.033204 0.999308 0.016779
v 0.253982 0.962887 -0.091339
v 0.521897 0.834558 -0.176455
v 0.744317 0.626884 -0.230237
v 0.899469 0.360193 -0.247421
v -0.618539 0.777106 0.116257
v -0.373263 0.927704 -0.006410
v -0.091449 0.987491 -0.128449
v 0.199316 0.950616 -0.237915
v 0.470571 0.820687 -0.324091
v 0.695763 0.610425 -0.378544
v 0.852849 0.340409 -0.395942
v -0.668043 0.743564 -0.028821
v -0.425787 0.892308 -0.149978
v -0.147443 0.951359 -0.270514
v 0.139743 0.914937 -0.378632
v 0.407658 0.786609 -0.463748
v 0.630078 0.578935 -0.517530
v 0.785230 0.312244 -0.534713
v -0.701098 0.691713 -0.173189
v -0.467827 0.834940 -0.289852
v -0.199806 0.891801 -0.405918
v 0.076728 0.856730 -0.510026
v 0.334707 0.733161 -0.591985
v 0.548877 0.533189 -0.643773
v 0.698275 0.276389 -0.660319
v -0.716890 0.622830 -0.313293
v -0.498347 0.757013 -0.422590
v -0.247249 0.810284 -0.531327
v 0.011824 0.777427 -0.628862
v 0.253514 0.661661 -0.705646
v 0.454162 0.474315 -0.754163
v 0.594126 0.233730 -0.769665
v -0.715029 0.538610 -0.445682
v -0.516597 0.660446 -0.544922
v -0.288605 0.708815 -0.643653
v -0.053370 0.678982 -0.732213
v 0.166079 0.573868 -0.801931
v 0.348264 0.403762 -0.845984
v 0.475349 0.185315 -0.860059
v -0.695562 0.441128 -0.567097
v -0.522126 0.547616 -0.653836
v -0.322853 0.589892 -0.740130
v -0.117251 0.563818 -0.817534
v 0.074555 0.471945 -0.878470
v 0.233790 0.323266 -0.916974
v 0.344866 0.132337 -0.929276
v -0.658968 0.332784 -0.674549
v -0.514798 0.421303 -0.746650
v -0.349153 0.456445 -0.818383
v -0.178245 0.434770 -0.882725
v -0.018805 0.358400 -0.933379
v 0.113559 0.234811 -0.965385
v 0.205892 0.076100 -0.975611
v -0.606148 0.216246 -0.765390
v -0.494795 0.284616 -0.821080
v -0.366854 0.311758 -0.876484
v -0.234850 0.295017 -0.926181
v -0.111702 0.236031 -0.965304
v -0.009467 0.140574 -0.990025
v 0.061848 0.017989 -0.997923
v -0.538403 0.094383 -0.837386
v -0.462608 0.140920 -0.875292
v -0.375523 0.159395 -0.913004
v -0.285672 0.148000 -0.946830
v -0.201849 0.107850 -0.973461
v -0.132261 0.042875 -0.990287
v -0.083719 -0.040564 -0.995663
v -0.457400 -0.029804 -0.888762
v -0.419030 -0.006245 -0.907951
v -0.374945 0.003107 -0.927042
v -0.329459 -0.002661 -0.944166
v -0.287026 -0.022986 -0.957647
v -0.251798 -0.055879 -0.966165
v -0.227224 -0.098118 -0.968887
v 0.365135 0.153257 0.918254
v -0.365135 -0.153257 -0.918253
vt 0.350000 0.050000
vt 0.400000 0.050000
vt 0.450000 0.050000
vt 0.500000 0.050000
vt 0.550000 0.050000
vt 0.600000 0.050000
vt 0.650000 0.050000
vt 0.350000 0.100000
vt 0.400000 0.100000
vt 0.450000 0.100000
vt 0.500000 0.100000
vt 0.550000 0.100000
vt 0.600000 0.100000
vt 0.650000 0.100000
vt 0.350000 0.150000
vt 0.400000 0.150000
vt 0.450000 0.150000
vt 0.500000 0.150000
vt 0.550000 0.150000
vt 0.600000 0.150000
vt 0.650000 0.150000
vt 0.350000 0.200000
vt 0.400000 0.200000
vt 0.450000 0.200000
vt 0.500000 0.200000
vt 0.550000 0.200000
vt 0.600000 0.200000
vt 0.650000 0.200000
vt 0.350000 0.250000
vt 0.400000 0.250000
vt 0.450000 0.250000
vt 0.500000 0.250000
vt 0.550000 0.250000
vt 0.600000 0.250000
vt 0.650000 0.250000
vt 0.350000 0.300000
vt 0.400000 0.300000
vt 0.450000 0.300000
vt 0.500000 0.300000
vt 0.550000 0.300000
vt 0.600000 0.300000
vt 0.650000 0.300000
vt 0.350000 0.350000
vt 0.400000 0.350000
vt 0.450000 0.350000
vt 0.500000 0.350000
vt 0.550000 0.350000
vt 0.600000 0.350000
vt 0.650000 0.350000
vt 0.350000 0.400000
vt 0.400000 0.400000
vt 0.450000 0.400000
vt 0.500000 0.400000
vt 0.550000 0.400000
vt 0.600000 0.400000
vt 0.650000 0.400000
vt 0.350000 0.450000
vt 0.400000 0.450000
vt 0.450000 0.450000
vt 0.500000 0.450000
vt 0.550000 0.450000
vt 0.600000 0.450000
vt 0.650000 0.450000
vt 0.350000 0.500000
vt 0.400000 0.500000
vt 0.450000 0.500000
vt 0.500000 0.500000
vt 0.550000 0.500000
vt 0.600000 0.500000
vt 0.650000 0.500000
vt 0.350000 0.550000
vt 0.400000 0.550000
vt 0.450000 0.550000
vt 0.500000 0.550000
vt 0.550000 0.550000
vt 0.600000 0.550000
vt 0.650000 0.550000
vt 0.350000 0.600000
vt 0.400000 0.600000
vt 0.450000 0.600000
vt 0.500000 0.600000
vt 0.550000 0.600000
vt 0.600000 0.600000
vt 0.650000 0.600000
vt 0.350000 0.650000
vt 0.400000 0.650000
vt 0.450000 0.650000
vt 0.500000 0.650000
vt 0.550000 0.650000
vt 0.600000 0.650000
vt 0.650000 0.650000
vt 0.350000 0.700000
vt 0.400000 0.700000
vt 0.450000 0.700000
vt 0.500000 0.700000
vt 0.550000 0.700000
vt 0.600000 0.700000
vt 0.650000 0.700000
vt 0.350000 0.750000
vt 0.400000 0.750000
vt 0.450000 0.750000
vt 0.500000 0.750000
vt 0.550000 0.750000
vt 0.600000 0.750000
vt 0.650000 0.750000
vt 0.350000 0.800000
vt 0.400000 0.800000
vt 0.450000 0.800000
vt 0.500000 0.800000
vt 0.550000 0.800000
vt 0.600000 0.800000
vt 0.650000 0.800000
vt 0.350000 0.850000
vt 0.400000 0.850000
vt 0.450000 0.850000
vt 0.500000 0.850000
vt 0.550000 0.850000
vt 0.600000 0.850000
vt 0.650000 0.850000
vt 0.350000 0.900000
vt 0.400000 0.900000
vt 0.450000 0.900000
vt 0.500000 0.900000
vt 0.550000 0.900000
vt 0.600000 0.900000
vt 0.650000 0.900000
vt 0.350000 0.950000
vt 0.400000 0.950000
vt 0.450000 0.950000
vt 0.500000 0.950000
vt 0.550000 0.950000
vt 0.600000 0.950000
vt 0.650000 0.950000
vt 0.375000 0.000000
vt 0.425000 0.000000
vt 0.475000 0.000000
vt 0.525000 0.000000
vt 0.575000 0.000000
vt 0.625000 0.000000
vt 0.375000 1.000000
vt 0.425000 1.000000
vt 0.475000 1.000000
vt 0.525000 1.000000
vt 0.575000 1.000000
vt 0.625000 1.000000
vn 0.255749 0.325059 0.910456
vn 0.282942 0.336025 0.898349
vn 0.219708 0.453940 0.863520
vn 0.174406 0.435348 0.883207
vn 0.339408 0.348004 0.873897
vn 0.313715 0.473884 0.822810
vn 0.397666 0.340616 0.851964
vn 0.410708 0.461583 0.786295
vn 0.452015 0.314584 0.834697
vn 0.501193 0.418242 0.757548
vn 0.497135 0.272455 0.823787
vn 0.576312 0.348103 0.739384
vn 0.516503 0.247669 0.819686
vn 0.608144 0.306617 0.732220
vn 0.146432 0.571932 0.807126
vn 0.082614 0.545038 0.834331
vn 0.279096 0.600077 0.749676
vn 0.415974 0.582718 0.698144
vn 0.543668 0.521554 0.657577
vn 0.649678 0.422572 0.631943
vn 0.693870 0.363621 0.621550
vn 0.068367 0.678955 0.730990
vn -0.012578 0.643727 0.765152
vn 0.237361 0.714807 0.657808
vn 0.411722 0.692694 0.592165
vn 0.574384 0.614781 0.540488
vn 0.709424 0.488694 0.507835
vn 0.764729 0.413027 0.494568
vn -0.011853 0.770707 0.637080
vn -0.107789 0.727485 0.677603
vn 0.189736 0.813475 0.549782
vn 0.397728 0.787096 0.471478
vn 0.591765 0.694155 0.409833
vn 0.752851 0.543748 0.370882
vn 0.817698 0.452808 0.355436
vn -0.092035 0.844409 0.527735
vn -0.200373 0.793927 0.574047
vn 0.137454 0.893095 0.428355
vn 0.374234 0.863066 0.339214
vn 0.595125 0.757262 0.269037
vn 0.778506 0.586038 0.224695
vn 0.851232 0.481818 0.207977
vn -0.170132 0.898059 0.405641
vn -0.288024 0.841463 0.457146
vn 0.081819 0.951511 0.296534
vn 0.341774 0.918543 0.198667
vn 0.584286 0.802383 0.121622
vn 0.785616 0.614400 0.072939
vn 0.864577 0.499379 0.055919
vn -0.244214 0.930274 0.273768
vn -0.368694 0.869092 0.329764
vn 0.024191 0.987217 0.157536
vn 0.301122 0.952096 0.053279
vn 0.559470 0.828350 -0.028798
vn 0.773948 0.628091 -0.080660
vn 0.857551 0.505151 -0.097098
vn -0.312474 0.940241 0.135306
vn -0.440574 0.876305 0.194894
vn -0.034033 0.999312 0.014727
vn 0.253252 0.962878 -0.093428
vn 0.521261 0.834505 -0.178574
vn 0.743758 0.626759 -0.232374
vn 0.830446 0.499076 -0.247555
vn -0.373263 0.927704 -0.006410
vn -0.502082 0.863030 0.055608
vn -0.091449 0.987491 -0.128449
vn 0.199316 0.950615 -0.237915
vn 0.470571 0.820687 -0.324091
vn 0.695763 0.610425 -0.378544
vn 0.783958 0.481343 -0.392070
vn -0.425117 0.892961 -0.147973
vn -0.551862 0.829594 -0.084978
vn -0.146676 0.952033 -0.268551
vn 0.140609 0.915599 -0.376706
vn 0.408618 0.787226 -0.461852
vn 0.631115 0.579479 -0.515652
vn 0.719157 0.452366 -0.527426
vn -0.466792 0.836852 -0.285978
vn -0.588782 0.776715 -0.223720
vn -0.198387 0.893795 -0.402211
vn 0.078544 0.858674 -0.506468
vn 0.336893 0.734928 -0.588544
vn 0.551370 0.534670 -0.640406
vn 0.637463 0.412774 -0.650582
vn -0.497289 0.760743 -0.417103
vn -0.611949 0.705503 -0.357471
vn -0.245337 0.814195 -0.526210
vn 0.014618 0.781227 -0.624076
vn 0.257130 0.665066 -0.701121
vn 0.458460 0.477084 -0.749804
vn 0.540652 0.363419 -0.758698
vn -0.515884 0.666507 -0.538175
vn -0.620740 0.617487 -0.483106
vn -0.286394 0.715194 -0.637555
vn -0.049615 0.685165 -0.726696
vn 0.171276 0.579361 -0.796872
vn 0.354657 0.408137 -0.841215
vn 0.430866 0.305378 -0.849175
vn -0.522157 0.556518 -0.646250
vn -0.614849 0.514658 -0.597568
vn -0.320568 0.599286 -0.733548
vn -0.112575 0.572908 -0.811852
vn 0.081461 0.479967 -0.873497
vn 0.242547 0.329559 -0.912448
vn 0.310639 0.239980 -0.919735
vn -0.516032 0.433666 -0.738678
vn -0.594359 0.399537 -0.697931
vn -0.347038 0.469518 -0.811860
vn -0.172677 0.447406 -0.877503
vn -0.010015 0.369492 -0.929180
vn 0.125025 0.243405 -0.961833
vn 0.182949 0.168838 -0.968516
vn -0.497860 0.301505 -0.813161
vn -0.559894 0.275360 -0.781470
vn -0.365195 0.329650 -0.870611
vn -0.228317 0.312290 -0.922142
vn -0.100623 0.251126 -0.962710
vn 0.005386 0.152145 -0.988344
vn 0.051362 0.093943 -0.994252
vn -0.468733 0.164983 -0.867796
vn -0.513075 0.146793 -0.845698
vn -0.374726 0.184926 -0.908506
vn -0.277733 0.172626 -0.945021
vn -0.187248 0.129284 -0.973768
vn -0.112129 0.059145 -0.991932
vn -0.079339 0.018062 -0.996684
vn -0.432517 0.035727 -0.900918
vn -0.459349 0.024912 -0.887906
vn -0.376053 0.047705 -0.925369
vn -0.317795 0.040317 -0.947302
vn -0.263446 0.014284 -0.964568
vn -0.218326 -0.027845 -0.975479
vn -0.198597 -0.052479 -0.978675
vn 0.377933 0.218034 0.899793
vn -0.350619 -0.087762 -0.932397
vn -0.199316 -0.950615 0.237915
vn -0.199316 -0.950615 0.237915
vn -0.199316 -0.950615 0.237915
vn -0.199316 -0.950615 0.237915
vn -0.199316 -0.950615 0.237915
vn -0.199316 -0.950615 0.237915
vn -0.199316 -0.950615 0.237915
vn -0.199316 -0.950615 0.237915
vn -0.199316 -0.950615 0.237915
vn -0.199316 -0.950615 0.237915
vn -0.199316 -0.950615 0.237915
vn -0.199316 -0.950615 0.237915
vn -0.199316 -0.950615 0.237915
vn -0.199316 -0.950615 0.237915
vn -0.199316 -0.950615 0.237915
vn -0.199316 -0.950615 0.237915
vn -0.199316 -0.950615 0.237915
vn -0.199316 -0.950615 0.237915
vn -0.199316 -0.950615 0.237915
vn -0.199316 -0.950615 0.237915
vn -0.199316 -0.950615 0.237915
vn -0.199316 -0.950615 0.237915
vn -0.199316 -0.950615 0.237915
vn -0.199316 -0.950615 0.237915
vn -0.199316 -0.950615 0.237915
vn -0.199316 -0.950615 0.237915
vn -0.199316 -0.950615 0.237915
vn -0.199316 -0.950615 0.237915
vn -0.199316 -0.950615 0.237915
vn -0.199316 -0.950615 0.237915
vn -0.199316 -0.950615 0.237915
vn -0.199316 -0.950615 0.237915
vn -0.199316 -0.950615 0.237915
vn -0.199316 -0.950615 0.237915
vn -0.199316 -0.950615 0.237915
vn -0.199316 -0.950615 0.237915
vn -0.199316 -0.950615 0.237915
vn -0.199316 -0.950615 0.237915
vn -0.199316 -0.950615 0.237915
vn -0.199316 -0.950615 0.237915
s 1
g pSphere1
usemtl initialShadingGroup
f 1/1/1 2/2/2 9/9/3 8/8/4
f 2/2/2 3/3/5 10/10/6 9/9/3
f 3/3/5 4/4/7 11/11/8 10/10/6
f 4/4/7 5/5/9 12/12/10 11/11/8
f 5/5/9 6/6/11 13/13/12 12/12/10
f 6/6/11 7/7/13 14/14/14 13/13/12
f 8/8/4 9/9/3 16/16/15 15/15/16
f 9/9/3 10/10/6 17/17/17 16/16/15
f 10/10/6 11/11/8 18/18/18 17/17/17
f 11/11/8 12/12/10 19/19/19 18/18/18
f 12/12/10 13/13/12 20/20/20 19/19/19
f 13/13/12 14/14/14 21/21/21 20/20/20
f 15/15/16 16/16/15 23/23/22 22/22/23
f 16/16/15 17/17/17 24/24/24 23/23/22
f 17/17/17 18/18/18 25/25/25 24/24/24
f 18/18/18 19/19/19 26/26/26 25/25/25
f 19/19/19 20/20/20 27/27/27 26/26/26
f 20/20/20 21/21/21 28/28/28 27/27/27
f 22/22/23 23/23/22 30/30/29 29/29/30
f 23/23/22 24/24/24 31/31/31 30/30/29
f 24/24/24 25/25/25 32/32/32 31/31/31
f 25/25/25 26/26/26 33/33/33 32/32/32
f 26/26/26 27/27/27 34/34/34 33/33/33
f 27/27/27 28/28/28 35/35/35 34/34/34
f 29/29/30 30/30/29 37/37/36 36/36/37
f 30/30/29 31/31/31 38/38/38 37/37/36
f 31/31/31 32/32/32 39/39/39 38/38/38
f 32/32/32 33/33/33 40/40/40 39/39/39
f 33/33/33 34/34/34 41/41/41 40/40/40
f 34/34/34 35/35/35 42/42/42 41/41/41
f 36/36/37 37/37/36 44/44/43 43/43/44
f 37/37/36 38/38/38 45/45/45 44/44/43
f 38/38/38 39/39/39 46/46/46 45/45/45
f 39/39/39 40/40/40 47/47/47 46/46/46
f 40/40/40 41/41/41 48/48/48 47/47/47
f 41/41/41 42/42/42 49/49/49 48/48/48
f 43/43/44 44/44/43 51/51/50 50/50/51
f 44/44/43 45/45/45 52/52/52 51/51/50
f 45/45/45 46/46/46 53/53/53 52/52/52
f 46/46/46 47/47/47 54/54/54 53/53/53
f 47/47/47 48/48/48 55/55/55 54/54/54
f 48/48/48 49/49/49 56/56/56 55/55/55
f 50/50/51 51/51/50 58/58/57 57/57/58
f 51/51/50 52/52/52 59/59/59 58/58/57
f 52/52/52 53/53/53 60/60/60 59/59/59
f 53/53/53 54/54/54 61/61/61 60/60/60
f 54/54/54 55/55/55 62/62/62 61/61/61
f 55/55/55 56/56/56 63/63/63 62/62/62
f 57/57/58 58/58/57 65/65/64 64/64/65
f 58/58/57 59/59/59 66/66/66 65/65/64
f 59/59/59 60/60/60 67/67/67 66/66/66
f 60/60/60 61/61/61 68/68/68 67/67/67
f 61/61/61 62/62/62 69/69/69 68/68/68
f 62/62/62 63/63/63 70/70/70 69/69/69
f 64/64/65 65/65/64 72/72/71 71/71/72
f 65/65/64 66/66/66 73/73/73 72/72/71
f 66/66/66 67/67/67 74/74/74 73/73/73
f 67/67/67 68/68/68 75/75/75 74/74/74
f 68/68/68 69/69/69 76/76/76 75/75/75
f 69/69/69 70/70/70 77/77/77 76/76/76
f 71/71/72 72/72/71 79/79/78 78/78/79
f 72/72/71 73/73/73 80/80/80 79/79/78
f 73/73/73 74/74/74 81/81/81 80/80/80
f 74/74/74 75/75/75 82/82/82 81/81/81
f 75/75/75 76/76/76 83/83/83 82/82/82
f 76/76/76 77/77/77 84/84/84 83/83/83
f 78/78/79 79/79/78 86/86/85 85/85/86
f 79/79/78 80/80/80 87/87/87 86/86/85
f 80/80/80 81/81/81 88/88/88 87/87/87
f 81/81/81 82/82/82 89/89/89 88/88/88
f 82/82/82 83/83/83 90/90/90 89/89/89
f 83/83/83 84/84/84 91/91/91 90/90/90
f 85/85/86 86/86/85 93/93/92 92/92/93
f 86/86/85 87/87/87 94/94/94 93/93/92
f 87/87/87 88/88/88 95/95/95 94/94/94
f 88/88/88 89/89/89 96/96/96 95/95/95
f 89/89/89 90/90/90 97/97/97 96/96/96
f 90/90/90 91/91/91 98/98/98 97/97/97
f 92/92/93 93/93/92 100/100/99 99/99/100
f 93/93/92 94/94/94 101/101/101 100/100/99
f 94/94/94 95/95/95 102/102/102 101/101/101
f 95/95/95 96/96/96 103/103/103 102/102/102
f 96/96/96 97/97/97 104/104/104 103/103/103
f 97/97/97 98/98/98 105/105/105 104/104/104
f 99/99/100 100/100/99 107/107/106 106/106/107
f 100/100/99 101/101/101 108/108/108 107/107/106
f 101/101/101 102/102/102 109/109/109 108/108/108
f 102/102/102 103/103/103 110/110/110 109/109/109
f 103/103/103 104/104/104 111/111/111 110/110/110
f 104/104/104 105/105/105 112/112/112 111/111/111
f 106/106/107 107/107/106 114/114/113 113/113/114
f 107/107/106 108/108/108 115/115/115 114/114/113
f 108/108/108 109/109/109 116/116/116 115/115/115
f 109/109/109 110/110/110 117/117/117 116/116/116
f 110/110/110 111/111/111 118/118/118 117/117/117
f 111/111/111 112/112/112 119/119/119 118/118/118
f 113/113/114 114/114/113 121/121/120 120/120/121
f 114/114/113 115/115/115 122/122/122 121/121/120
f 115/115/115 116/116/116 123/123/123 122/122/122
f 116/116/116 117/117/117 124/124/124 123/123/123
f 117/117/117 118/118/118 125/125/125 124/124/124
f 118/118/118 119/119/119 126/126/126 125/125/125
f 120/120/121 121/121/120 128/128/127 127/127/128
f 121/121/120 122/122/122 129/129/129 128/128/127
f 122/122/122 123/123/123 130/130/130 129/129/129
f 123/123/123 124/124/124 131/131/131 130/130/130
f 124/124/124 125/125/125 132/132/132 131/131/131
f 125/125/125 126/126/126 133/133/133 132/132/132
f 2/2/2 1/1/1 134/134/134
f 3/3/5 2/2/2 134/135/134
f 4/4/7 3/3/5 134/136/134
f 5/5/9 4/4/7 134/137/134
f 6/6/11 5/5/9 134/138/134
f 7/7/13 6/6/11 134/139/134
f 127/127/128 128/128/127 135/140/135
f 128/128/127 129/129/129 135/141/135
f 129/129/129 130/130/130 135/142/135
f 130/130/130 131/131/131 135/143/135
f 131/131/131 132/132/132 135/144/135
f 132/132/132 133/133/133 135/145/135
s off
f 135/145/136 133/133/137 126/126/138 119/119/139 112/112/140 105/105/141 98/98/142 91/91/143 84/84/144 77/77/145 70/70/146 63/63/147 56/56/148 49/49/149 42/42/150 35/35/151 28/28/152 21/21/153 14/14/154 7/7/155 134/134/156 1/1/157 8/8/158 15/15/159 22/22/160 29/29/161 36/36/162 43/43/163 50/50/164 57/57/165 64/64/166 71/71/167 78/78/168 85/85/169 92/92/170 99/99/171 106/106/172 113/113/173 120/120/174 127/127/175
